ISO-10303-21;
HEADER;
/* Generated by software containing ST-Developer
 * from STEP Tools, Inc. (www.steptools.com) 
 */

FILE_DESCRIPTION(
/* description */ (''),
/* implementation_level */ '2;1');

FILE_NAME(
/* name */ 'R2 metal system standard basket.step',
/* time_stamp */ '2026-09-28T09:24:46+02:00',
/* author */ (''),
/* organization */ (''),
/* preprocessor_version */ 'ST-DEVELOPER v20.2',
/* originating_system */ 'Autodesk Translation Framework v15.15.0.0',
/* authorisation */ '');

FILE_SCHEMA (('AUTOMOTIVE_DESIGN { 1 0 10303 214 3 1 1 }'));
ENDSEC;

DATA;
#10=MECHANICAL_DESIGN_GEOMETRIC_PRESENTATION_REPRESENTATION('',(#13),#1115);
#11=SHAPE_REPRESENTATION_RELATIONSHIP('SRR','None',#1122,#12);
#12=ADVANCED_BREP_SHAPE_REPRESENTATION('',(#14),#1114);
#13=STYLED_ITEM('',(#1132),#14);
#14=MANIFOLD_SOLID_BREP('New Basket',#652);
#15=FACE_BOUND('',#77,.T.);
#16=FACE_BOUND('',#80,.T.);
#17=FACE_BOUND('',#82,.T.);
#18=B_SPLINE_CURVE_WITH_KNOTS('',3,(#952,#953,#954,#955,#956,#957,#958,
#959,#960,#961,#962,#963,#964,#965,#966,#967,#968,#969),.UNSPECIFIED.,.F.,
 .F.,(4,2,2,2,2,2,2,2,4),(0.0251327787508098,0.0347116879645101,0.0694233759290203,
0.103669630464152,0.137915884999283,0.172162139534419,0.206408394069556,
0.241120082034068,0.250698991247769),.UNSPECIFIED.);
#19=B_SPLINE_CURVE_WITH_KNOTS('',3,(#971,#972,#973,#974,#975,#976,#977,
#978,#979,#980,#981,#982,#983,#984,#985,#986,#987,#988),.UNSPECIFIED.,.F.,
 .F.,(4,2,2,2,2,2,2,2,4),(0.300964548749392,0.310543457963093,0.345255145927606,
0.379501400462742,0.413747654997878,0.44799390953301,0.482240164068141,
0.516951852032651,0.526530761246352),.UNSPECIFIED.);
#20=CYLINDRICAL_SURFACE('',#673,1.2645);
#21=CYLINDRICAL_SURFACE('',#678,0.875000000000001);
#22=CIRCLE('',#672,1.2645);
#23=CIRCLE('',#674,1.2645);
#24=CIRCLE('',#675,1.2645);
#25=CIRCLE('',#676,1.2645);
#26=CIRCLE('',#679,0.875000000000001);
#27=CIRCLE('',#680,0.875000000000001);
#28=B_SPLINE_SURFACE_WITH_KNOTS('',3,3,((#882,#883,#884,#885),(#886,#887,
#888,#889),(#890,#891,#892,#893),(#894,#895,#896,#897)),.UNSPECIFIED.,.F.,
 .F.,.F.,(4,4),(4,4),(0.,1.),(0.,1.),.UNSPECIFIED.);
#29=B_SPLINE_SURFACE_WITH_KNOTS('',3,3,((#903,#904,#905,#906),(#907,#908,
#909,#910),(#911,#912,#913,#914),(#915,#916,#917,#918)),.UNSPECIFIED.,.F.,
 .F.,.F.,(4,4),(4,4),(0.,1.),(0.,1.),.UNSPECIFIED.);
#30=FACE_OUTER_BOUND('',#66,.T.);
#31=FACE_OUTER_BOUND('',#67,.T.);
#32=FACE_OUTER_BOUND('',#68,.T.);
#33=FACE_OUTER_BOUND('',#69,.T.);
#34=FACE_OUTER_BOUND('',#70,.T.);
#35=FACE_OUTER_BOUND('',#71,.T.);
#36=FACE_OUTER_BOUND('',#72,.T.);
#37=FACE_OUTER_BOUND('',#73,.T.);
#38=FACE_OUTER_BOUND('',#74,.T.);
#39=FACE_OUTER_BOUND('',#75,.T.);
#40=FACE_OUTER_BOUND('',#76,.T.);
#41=FACE_OUTER_BOUND('',#78,.T.);
#42=FACE_OUTER_BOUND('',#79,.T.);
#43=FACE_OUTER_BOUND('',#81,.T.);
#44=FACE_OUTER_BOUND('',#83,.T.);
#45=FACE_OUTER_BOUND('',#84,.T.);
#46=FACE_OUTER_BOUND('',#85,.T.);
#47=FACE_OUTER_BOUND('',#86,.T.);
#48=FACE_OUTER_BOUND('',#87,.T.);
#49=FACE_OUTER_BOUND('',#88,.T.);
#50=FACE_OUTER_BOUND('',#89,.T.);
#51=FACE_OUTER_BOUND('',#90,.T.);
#52=FACE_OUTER_BOUND('',#91,.T.);
#53=FACE_OUTER_BOUND('',#92,.T.);
#54=FACE_OUTER_BOUND('',#93,.T.);
#55=FACE_OUTER_BOUND('',#94,.T.);
#56=FACE_OUTER_BOUND('',#95,.T.);
#57=FACE_OUTER_BOUND('',#96,.T.);
#58=FACE_OUTER_BOUND('',#97,.T.);
#59=FACE_OUTER_BOUND('',#98,.T.);
#60=FACE_OUTER_BOUND('',#99,.T.);
#61=FACE_OUTER_BOUND('',#100,.T.);
#62=FACE_OUTER_BOUND('',#101,.T.);
#63=FACE_OUTER_BOUND('',#102,.T.);
#64=FACE_OUTER_BOUND('',#103,.T.);
#65=FACE_OUTER_BOUND('',#104,.T.);
#66=EDGE_LOOP('',(#408,#409,#410));
#67=EDGE_LOOP('',(#411,#412,#413,#414));
#68=EDGE_LOOP('',(#415,#416,#417,#418));
#69=EDGE_LOOP('',(#419,#420,#421,#422));
#70=EDGE_LOOP('',(#423,#424,#425,#426));
#71=EDGE_LOOP('',(#427,#428,#429));
#72=EDGE_LOOP('',(#430,#431,#432,#433));
#73=EDGE_LOOP('',(#434,#435));
#74=EDGE_LOOP('',(#436,#437,#438,#439,#440,#441,#442,#443));
#75=EDGE_LOOP('',(#444,#445,#446));
#76=EDGE_LOOP('',(#447,#448,#449,#450));
#77=EDGE_LOOP('',(#451,#452,#453,#454));
#78=EDGE_LOOP('',(#455));
#79=EDGE_LOOP('',(#456,#457,#458,#459));
#80=EDGE_LOOP('',(#460));
#81=EDGE_LOOP('',(#461,#462,#463,#464));
#82=EDGE_LOOP('',(#465));
#83=EDGE_LOOP('',(#466,#467,#468,#469,#470,#471,#472,#473));
#84=EDGE_LOOP('',(#474,#475,#476,#477,#478,#479));
#85=EDGE_LOOP('',(#480,#481,#482,#483,#484,#485));
#86=EDGE_LOOP('',(#486,#487,#488,#489,#490,#491,#492));
#87=EDGE_LOOP('',(#493,#494,#495,#496));
#88=EDGE_LOOP('',(#497,#498,#499,#500,#501,#502,#503,#504,#505));
#89=EDGE_LOOP('',(#506,#507,#508,#509));
#90=EDGE_LOOP('',(#510,#511,#512,#513));
#91=EDGE_LOOP('',(#514,#515,#516,#517,#518));
#92=EDGE_LOOP('',(#519,#520,#521,#522,#523));
#93=EDGE_LOOP('',(#524,#525,#526,#527));
#94=EDGE_LOOP('',(#528,#529,#530,#531));
#95=EDGE_LOOP('',(#532,#533,#534,#535,#536,#537));
#96=EDGE_LOOP('',(#538,#539,#540,#541));
#97=EDGE_LOOP('',(#542,#543,#544,#545));
#98=EDGE_LOOP('',(#546,#547,#548,#549));
#99=EDGE_LOOP('',(#550,#551,#552,#553));
#100=EDGE_LOOP('',(#554,#555,#556,#557,#558,#559));
#101=EDGE_LOOP('',(#560,#561,#562,#563));
#102=EDGE_LOOP('',(#564,#565,#566,#567));
#103=EDGE_LOOP('',(#568,#569,#570,#571,#572,#573,#574,#575));
#104=EDGE_LOOP('',(#576,#577,#578,#579,#580,#581,#582,#583));
#105=LINE('',#872,#185);
#106=LINE('',#874,#186);
#107=LINE('',#875,#187);
#108=LINE('',#878,#188);
#109=LINE('',#880,#189);
#110=LINE('',#881,#190);
#111=LINE('',#899,#191);
#112=LINE('',#901,#192);
#113=LINE('',#902,#193);
#114=LINE('',#920,#194);
#115=LINE('',#922,#195);
#116=LINE('',#923,#196);
#117=LINE('',#926,#197);
#118=LINE('',#928,#198);
#119=LINE('',#929,#199);
#120=LINE('',#932,#200);
#121=LINE('',#933,#201);
#122=LINE('',#936,#202);
#123=LINE('',#938,#203);
#124=LINE('',#939,#204);
#125=LINE('',#943,#205);
#126=LINE('',#949,#206);
#127=LINE('',#991,#207);
#128=LINE('',#996,#208);
#129=LINE('',#1002,#209);
#130=LINE('',#1004,#210);
#131=LINE('',#1006,#211);
#132=LINE('',#1007,#212);
#133=LINE('',#1010,#213);
#134=LINE('',#1012,#214);
#135=LINE('',#1013,#215);
#136=LINE('',#1016,#216);
#137=LINE('',#1017,#217);
#138=LINE('',#1019,#218);
#139=LINE('',#1021,#219);
#140=LINE('',#1023,#220);
#141=LINE('',#1024,#221);
#142=LINE('',#1026,#222);
#143=LINE('',#1027,#223);
#144=LINE('',#1029,#224);
#145=LINE('',#1032,#225);
#146=LINE('',#1035,#226);
#147=LINE('',#1037,#227);
#148=LINE('',#1039,#228);
#149=LINE('',#1041,#229);
#150=LINE('',#1043,#230);
#151=LINE('',#1045,#231);
#152=LINE('',#1047,#232);
#153=LINE('',#1048,#233);
#154=LINE('',#1050,#234);
#155=LINE('',#1051,#235);
#156=LINE('',#1053,#236);
#157=LINE('',#1056,#237);
#158=LINE('',#1058,#238);
#159=LINE('',#1059,#239);
#160=LINE('',#1062,#240);
#161=LINE('',#1064,#241);
#162=LINE('',#1065,#242);
#163=LINE('',#1068,#243);
#164=LINE('',#1070,#244);
#165=LINE('',#1071,#245);
#166=LINE('',#1074,#246);
#167=LINE('',#1076,#247);
#168=LINE('',#1077,#248);
#169=LINE('',#1080,#249);
#170=LINE('',#1082,#250);
#171=LINE('',#1084,#251);
#172=LINE('',#1085,#252);
#173=LINE('',#1088,#253);
#174=LINE('',#1090,#254);
#175=LINE('',#1091,#255);
#176=LINE('',#1094,#256);
#177=LINE('',#1095,#257);
#178=LINE('',#1097,#258);
#179=LINE('',#1100,#259);
#180=LINE('',#1102,#260);
#181=LINE('',#1103,#261);
#182=LINE('',#1105,#262);
#183=LINE('',#1107,#263);
#184=LINE('',#1109,#264);
#185=VECTOR('',#710,10.);
#186=VECTOR('',#711,10.);
#187=VECTOR('',#712,10.);
#188=VECTOR('',#715,10.);
#189=VECTOR('',#716,10.);
#190=VECTOR('',#717,10.7125245708735);
#191=VECTOR('',#718,10.);
#192=VECTOR('',#719,10.);
#193=VECTOR('',#720,4.26302796061763);
#194=VECTOR('',#721,10.);
#195=VECTOR('',#722,10.);
#196=VECTOR('',#723,10.);
#197=VECTOR('',#726,10.);
#198=VECTOR('',#727,10.);
#199=VECTOR('',#728,10.);
#200=VECTOR('',#731,10.);
#201=VECTOR('',#732,10.);
#202=VECTOR('',#735,10.);
#203=VECTOR('',#736,10.);
#204=VECTOR('',#737,10.);
#205=VECTOR('',#740,10.);
#206=VECTOR('',#747,1.5);
#207=VECTOR('',#754,10.);
#208=VECTOR('',#759,0.875000000000001);
#209=VECTOR('',#766,10.);
#210=VECTOR('',#767,10.);
#211=VECTOR('',#768,10.);
#212=VECTOR('',#769,10.);
#213=VECTOR('',#772,10.);
#214=VECTOR('',#773,10.);
#215=VECTOR('',#774,10.);
#216=VECTOR('',#777,10.);
#217=VECTOR('',#778,10.);
#218=VECTOR('',#779,10.);
#219=VECTOR('',#780,10.);
#220=VECTOR('',#781,10.);
#221=VECTOR('',#782,10.);
#222=VECTOR('',#785,10.);
#223=VECTOR('',#786,10.);
#224=VECTOR('',#789,10.);
#225=VECTOR('',#794,10.);
#226=VECTOR('',#797,10.);
#227=VECTOR('',#798,10.);
#228=VECTOR('',#799,10.);
#229=VECTOR('',#800,10.);
#230=VECTOR('',#801,10.);
#231=VECTOR('',#802,10.);
#232=VECTOR('',#803,10.);
#233=VECTOR('',#804,10.);
#234=VECTOR('',#807,10.);
#235=VECTOR('',#808,10.);
#236=VECTOR('',#811,10.);
#237=VECTOR('',#814,10.);
#238=VECTOR('',#815,10.);
#239=VECTOR('',#816,10.);
#240=VECTOR('',#819,10.);
#241=VECTOR('',#820,10.);
#242=VECTOR('',#821,10.);
#243=VECTOR('',#824,10.);
#244=VECTOR('',#825,10.);
#245=VECTOR('',#826,10.);
#246=VECTOR('',#829,10.);
#247=VECTOR('',#830,10.);
#248=VECTOR('',#831,10.);
#249=VECTOR('',#834,10.);
#250=VECTOR('',#835,10.);
#251=VECTOR('',#836,10.);
#252=VECTOR('',#837,10.);
#253=VECTOR('',#840,10.);
#254=VECTOR('',#841,10.);
#255=VECTOR('',#842,10.);
#256=VECTOR('',#845,10.);
#257=VECTOR('',#846,10.);
#258=VECTOR('',#849,10.);
#259=VECTOR('',#852,10.);
#260=VECTOR('',#853,10.);
#261=VECTOR('',#854,10.);
#262=VECTOR('',#857,10.);
#263=VECTOR('',#860,10.);
#264=VECTOR('',#863,10.);
#265=VERTEX_POINT('',#870);
#266=VERTEX_POINT('',#871);
#267=VERTEX_POINT('',#873);
#268=VERTEX_POINT('',#877);
#269=VERTEX_POINT('',#879);
#270=VERTEX_POINT('',#898);
#271=VERTEX_POINT('',#900);
#272=VERTEX_POINT('',#919);
#273=VERTEX_POINT('',#921);
#274=VERTEX_POINT('',#925);
#275=VERTEX_POINT('',#927);
#276=VERTEX_POINT('',#931);
#277=VERTEX_POINT('',#935);
#278=VERTEX_POINT('',#937);
#279=VERTEX_POINT('',#941);
#280=VERTEX_POINT('',#942);
#281=VERTEX_POINT('',#946);
#282=VERTEX_POINT('',#948);
#283=VERTEX_POINT('',#950);
#284=VERTEX_POINT('',#970);
#285=VERTEX_POINT('',#993);
#286=VERTEX_POINT('',#995);
#287=VERTEX_POINT('',#1000);
#288=VERTEX_POINT('',#1001);
#289=VERTEX_POINT('',#1003);
#290=VERTEX_POINT('',#1005);
#291=VERTEX_POINT('',#1009);
#292=VERTEX_POINT('',#1011);
#293=VERTEX_POINT('',#1015);
#294=VERTEX_POINT('',#1018);
#295=VERTEX_POINT('',#1020);
#296=VERTEX_POINT('',#1022);
#297=VERTEX_POINT('',#1034);
#298=VERTEX_POINT('',#1036);
#299=VERTEX_POINT('',#1038);
#300=VERTEX_POINT('',#1040);
#301=VERTEX_POINT('',#1042);
#302=VERTEX_POINT('',#1044);
#303=VERTEX_POINT('',#1046);
#304=VERTEX_POINT('',#1055);
#305=VERTEX_POINT('',#1057);
#306=VERTEX_POINT('',#1061);
#307=VERTEX_POINT('',#1063);
#308=VERTEX_POINT('',#1067);
#309=VERTEX_POINT('',#1069);
#310=VERTEX_POINT('',#1073);
#311=VERTEX_POINT('',#1075);
#312=VERTEX_POINT('',#1079);
#313=VERTEX_POINT('',#1081);
#314=VERTEX_POINT('',#1083);
#315=VERTEX_POINT('',#1087);
#316=VERTEX_POINT('',#1089);
#317=VERTEX_POINT('',#1093);
#318=VERTEX_POINT('',#1099);
#319=VERTEX_POINT('',#1101);
#320=EDGE_CURVE('',#265,#266,#105,.T.);
#321=EDGE_CURVE('',#267,#265,#106,.T.);
#322=EDGE_CURVE('',#266,#267,#107,.T.);
#323=EDGE_CURVE('',#266,#268,#108,.T.);
#324=EDGE_CURVE('',#267,#269,#109,.T.);
#325=EDGE_CURVE('',#268,#269,#110,.T.);
#326=EDGE_CURVE('',#268,#270,#111,.T.);
#327=EDGE_CURVE('',#269,#271,#112,.T.);
#328=EDGE_CURVE('',#270,#271,#113,.T.);
#329=EDGE_CURVE('',#270,#272,#114,.T.);
#330=EDGE_CURVE('',#271,#273,#115,.T.);
#331=EDGE_CURVE('',#272,#273,#116,.T.);
#332=EDGE_CURVE('',#272,#274,#117,.T.);
#333=EDGE_CURVE('',#273,#275,#118,.T.);
#334=EDGE_CURVE('',#274,#275,#119,.T.);
#335=EDGE_CURVE('',#276,#274,#120,.T.);
#336=EDGE_CURVE('',#276,#275,#121,.T.);
#337=EDGE_CURVE('',#275,#277,#122,.T.);
#338=EDGE_CURVE('',#277,#278,#123,.T.);
#339=EDGE_CURVE('',#278,#276,#124,.T.);
#340=EDGE_CURVE('',#279,#280,#125,.T.);
#341=EDGE_CURVE('',#280,#279,#22,.F.);
#342=EDGE_CURVE('',#281,#281,#23,.T.);
#343=EDGE_CURVE('',#281,#282,#126,.T.);
#344=EDGE_CURVE('',#282,#283,#24,.F.);
#345=EDGE_CURVE('',#280,#283,#18,.F.);
#346=EDGE_CURVE('',#284,#279,#19,.F.);
#347=EDGE_CURVE('',#284,#282,#25,.F.);
#348=EDGE_CURVE('',#283,#284,#127,.T.);
#349=EDGE_CURVE('',#285,#285,#26,.T.);
#350=EDGE_CURVE('',#285,#286,#128,.T.);
#351=EDGE_CURVE('',#286,#286,#27,.T.);
#352=EDGE_CURVE('',#287,#288,#129,.T.);
#353=EDGE_CURVE('',#287,#289,#130,.T.);
#354=EDGE_CURVE('',#290,#289,#131,.T.);
#355=EDGE_CURVE('',#288,#290,#132,.T.);
#356=EDGE_CURVE('',#288,#291,#133,.T.);
#357=EDGE_CURVE('',#292,#291,#134,.T.);
#358=EDGE_CURVE('',#292,#287,#135,.T.);
#359=EDGE_CURVE('',#293,#292,#136,.T.);
#360=EDGE_CURVE('',#291,#278,#137,.T.);
#361=EDGE_CURVE('',#294,#277,#138,.T.);
#362=EDGE_CURVE('',#294,#295,#139,.T.);
#363=EDGE_CURVE('',#295,#296,#140,.T.);
#364=EDGE_CURVE('',#293,#296,#141,.T.);
#365=EDGE_CURVE('',#265,#293,#142,.T.);
#366=EDGE_CURVE('',#289,#266,#143,.T.);
#367=EDGE_CURVE('',#274,#290,#144,.T.);
#368=EDGE_CURVE('',#296,#267,#145,.T.);
#369=EDGE_CURVE('',#297,#294,#146,.T.);
#370=EDGE_CURVE('',#297,#298,#147,.T.);
#371=EDGE_CURVE('',#299,#298,#148,.T.);
#372=EDGE_CURVE('',#299,#300,#149,.T.);
#373=EDGE_CURVE('',#300,#301,#150,.T.);
#374=EDGE_CURVE('',#302,#301,#151,.T.);
#375=EDGE_CURVE('',#302,#303,#152,.T.);
#376=EDGE_CURVE('',#295,#303,#153,.T.);
#377=EDGE_CURVE('',#300,#271,#154,.T.);
#378=EDGE_CURVE('',#273,#299,#155,.T.);
#379=EDGE_CURVE('',#301,#269,#156,.T.);
#380=EDGE_CURVE('',#299,#304,#157,.T.);
#381=EDGE_CURVE('',#305,#304,#158,.T.);
#382=EDGE_CURVE('',#275,#305,#159,.T.);
#383=EDGE_CURVE('',#267,#306,#160,.T.);
#384=EDGE_CURVE('',#307,#306,#161,.T.);
#385=EDGE_CURVE('',#307,#301,#162,.T.);
#386=EDGE_CURVE('',#304,#308,#163,.T.);
#387=EDGE_CURVE('',#309,#308,#164,.T.);
#388=EDGE_CURVE('',#305,#309,#165,.T.);
#389=EDGE_CURVE('',#310,#298,#166,.T.);
#390=EDGE_CURVE('',#297,#311,#167,.T.);
#391=EDGE_CURVE('',#311,#310,#168,.T.);
#392=EDGE_CURVE('',#312,#307,#169,.T.);
#393=EDGE_CURVE('',#313,#312,#170,.T.);
#394=EDGE_CURVE('',#314,#313,#171,.T.);
#395=EDGE_CURVE('',#302,#314,#172,.T.);
#396=EDGE_CURVE('',#314,#315,#173,.T.);
#397=EDGE_CURVE('',#316,#313,#174,.T.);
#398=EDGE_CURVE('',#315,#316,#175,.T.);
#399=EDGE_CURVE('',#312,#317,#176,.T.);
#400=EDGE_CURVE('',#317,#316,#177,.T.);
#401=EDGE_CURVE('',#303,#315,#178,.T.);
#402=EDGE_CURVE('',#311,#318,#179,.T.);
#403=EDGE_CURVE('',#319,#318,#180,.T.);
#404=EDGE_CURVE('',#310,#319,#181,.T.);
#405=EDGE_CURVE('',#308,#319,#182,.T.);
#406=EDGE_CURVE('',#318,#309,#183,.T.);
#407=EDGE_CURVE('',#306,#317,#184,.T.);
#408=ORIENTED_EDGE('',*,*,#320,.F.);
#409=ORIENTED_EDGE('',*,*,#321,.F.);
#410=ORIENTED_EDGE('',*,*,#322,.F.);
#411=ORIENTED_EDGE('',*,*,#323,.F.);
#412=ORIENTED_EDGE('',*,*,#322,.T.);
#413=ORIENTED_EDGE('',*,*,#324,.T.);
#414=ORIENTED_EDGE('',*,*,#325,.F.);
#415=ORIENTED_EDGE('',*,*,#326,.F.);
#416=ORIENTED_EDGE('',*,*,#325,.T.);
#417=ORIENTED_EDGE('',*,*,#327,.T.);
#418=ORIENTED_EDGE('',*,*,#328,.F.);
#419=ORIENTED_EDGE('',*,*,#329,.F.);
#420=ORIENTED_EDGE('',*,*,#328,.T.);
#421=ORIENTED_EDGE('',*,*,#330,.T.);
#422=ORIENTED_EDGE('',*,*,#331,.F.);
#423=ORIENTED_EDGE('',*,*,#332,.F.);
#424=ORIENTED_EDGE('',*,*,#331,.T.);
#425=ORIENTED_EDGE('',*,*,#333,.T.);
#426=ORIENTED_EDGE('',*,*,#334,.F.);
#427=ORIENTED_EDGE('',*,*,#335,.T.);
#428=ORIENTED_EDGE('',*,*,#334,.T.);
#429=ORIENTED_EDGE('',*,*,#336,.F.);
#430=ORIENTED_EDGE('',*,*,#336,.T.);
#431=ORIENTED_EDGE('',*,*,#337,.T.);
#432=ORIENTED_EDGE('',*,*,#338,.T.);
#433=ORIENTED_EDGE('',*,*,#339,.T.);
#434=ORIENTED_EDGE('',*,*,#340,.F.);
#435=ORIENTED_EDGE('',*,*,#341,.F.);
#436=ORIENTED_EDGE('',*,*,#342,.F.);
#437=ORIENTED_EDGE('',*,*,#343,.T.);
#438=ORIENTED_EDGE('',*,*,#344,.T.);
#439=ORIENTED_EDGE('',*,*,#345,.F.);
#440=ORIENTED_EDGE('',*,*,#341,.T.);
#441=ORIENTED_EDGE('',*,*,#346,.F.);
#442=ORIENTED_EDGE('',*,*,#347,.T.);
#443=ORIENTED_EDGE('',*,*,#343,.F.);
#444=ORIENTED_EDGE('',*,*,#348,.F.);
#445=ORIENTED_EDGE('',*,*,#344,.F.);
#446=ORIENTED_EDGE('',*,*,#347,.F.);
#447=ORIENTED_EDGE('',*,*,#349,.F.);
#448=ORIENTED_EDGE('',*,*,#350,.T.);
#449=ORIENTED_EDGE('',*,*,#351,.T.);
#450=ORIENTED_EDGE('',*,*,#350,.F.);
#451=ORIENTED_EDGE('',*,*,#340,.T.);
#452=ORIENTED_EDGE('',*,*,#345,.T.);
#453=ORIENTED_EDGE('',*,*,#348,.T.);
#454=ORIENTED_EDGE('',*,*,#346,.T.);
#455=ORIENTED_EDGE('',*,*,#351,.F.);
#456=ORIENTED_EDGE('',*,*,#352,.F.);
#457=ORIENTED_EDGE('',*,*,#353,.T.);
#458=ORIENTED_EDGE('',*,*,#354,.F.);
#459=ORIENTED_EDGE('',*,*,#355,.F.);
#460=ORIENTED_EDGE('',*,*,#349,.T.);
#461=ORIENTED_EDGE('',*,*,#356,.T.);
#462=ORIENTED_EDGE('',*,*,#357,.F.);
#463=ORIENTED_EDGE('',*,*,#358,.T.);
#464=ORIENTED_EDGE('',*,*,#352,.T.);
#465=ORIENTED_EDGE('',*,*,#342,.T.);
#466=ORIENTED_EDGE('',*,*,#359,.T.);
#467=ORIENTED_EDGE('',*,*,#357,.T.);
#468=ORIENTED_EDGE('',*,*,#360,.T.);
#469=ORIENTED_EDGE('',*,*,#338,.F.);
#470=ORIENTED_EDGE('',*,*,#361,.F.);
#471=ORIENTED_EDGE('',*,*,#362,.T.);
#472=ORIENTED_EDGE('',*,*,#363,.T.);
#473=ORIENTED_EDGE('',*,*,#364,.F.);
#474=ORIENTED_EDGE('',*,*,#365,.F.);
#475=ORIENTED_EDGE('',*,*,#320,.T.);
#476=ORIENTED_EDGE('',*,*,#366,.F.);
#477=ORIENTED_EDGE('',*,*,#353,.F.);
#478=ORIENTED_EDGE('',*,*,#358,.F.);
#479=ORIENTED_EDGE('',*,*,#359,.F.);
#480=ORIENTED_EDGE('',*,*,#339,.F.);
#481=ORIENTED_EDGE('',*,*,#360,.F.);
#482=ORIENTED_EDGE('',*,*,#356,.F.);
#483=ORIENTED_EDGE('',*,*,#355,.T.);
#484=ORIENTED_EDGE('',*,*,#367,.F.);
#485=ORIENTED_EDGE('',*,*,#335,.F.);
#486=ORIENTED_EDGE('',*,*,#323,.T.);
#487=ORIENTED_EDGE('',*,*,#326,.T.);
#488=ORIENTED_EDGE('',*,*,#329,.T.);
#489=ORIENTED_EDGE('',*,*,#332,.T.);
#490=ORIENTED_EDGE('',*,*,#367,.T.);
#491=ORIENTED_EDGE('',*,*,#354,.T.);
#492=ORIENTED_EDGE('',*,*,#366,.T.);
#493=ORIENTED_EDGE('',*,*,#321,.T.);
#494=ORIENTED_EDGE('',*,*,#365,.T.);
#495=ORIENTED_EDGE('',*,*,#364,.T.);
#496=ORIENTED_EDGE('',*,*,#368,.T.);
#497=ORIENTED_EDGE('',*,*,#362,.F.);
#498=ORIENTED_EDGE('',*,*,#369,.F.);
#499=ORIENTED_EDGE('',*,*,#370,.T.);
#500=ORIENTED_EDGE('',*,*,#371,.F.);
#501=ORIENTED_EDGE('',*,*,#372,.T.);
#502=ORIENTED_EDGE('',*,*,#373,.T.);
#503=ORIENTED_EDGE('',*,*,#374,.F.);
#504=ORIENTED_EDGE('',*,*,#375,.T.);
#505=ORIENTED_EDGE('',*,*,#376,.F.);
#506=ORIENTED_EDGE('',*,*,#330,.F.);
#507=ORIENTED_EDGE('',*,*,#377,.F.);
#508=ORIENTED_EDGE('',*,*,#372,.F.);
#509=ORIENTED_EDGE('',*,*,#378,.F.);
#510=ORIENTED_EDGE('',*,*,#373,.F.);
#511=ORIENTED_EDGE('',*,*,#377,.T.);
#512=ORIENTED_EDGE('',*,*,#327,.F.);
#513=ORIENTED_EDGE('',*,*,#379,.F.);
#514=ORIENTED_EDGE('',*,*,#378,.T.);
#515=ORIENTED_EDGE('',*,*,#380,.T.);
#516=ORIENTED_EDGE('',*,*,#381,.F.);
#517=ORIENTED_EDGE('',*,*,#382,.F.);
#518=ORIENTED_EDGE('',*,*,#333,.F.);
#519=ORIENTED_EDGE('',*,*,#379,.T.);
#520=ORIENTED_EDGE('',*,*,#324,.F.);
#521=ORIENTED_EDGE('',*,*,#383,.T.);
#522=ORIENTED_EDGE('',*,*,#384,.F.);
#523=ORIENTED_EDGE('',*,*,#385,.T.);
#524=ORIENTED_EDGE('',*,*,#386,.T.);
#525=ORIENTED_EDGE('',*,*,#387,.F.);
#526=ORIENTED_EDGE('',*,*,#388,.F.);
#527=ORIENTED_EDGE('',*,*,#381,.T.);
#528=ORIENTED_EDGE('',*,*,#389,.T.);
#529=ORIENTED_EDGE('',*,*,#370,.F.);
#530=ORIENTED_EDGE('',*,*,#390,.T.);
#531=ORIENTED_EDGE('',*,*,#391,.T.);
#532=ORIENTED_EDGE('',*,*,#392,.F.);
#533=ORIENTED_EDGE('',*,*,#393,.F.);
#534=ORIENTED_EDGE('',*,*,#394,.F.);
#535=ORIENTED_EDGE('',*,*,#395,.F.);
#536=ORIENTED_EDGE('',*,*,#374,.T.);
#537=ORIENTED_EDGE('',*,*,#385,.F.);
#538=ORIENTED_EDGE('',*,*,#396,.F.);
#539=ORIENTED_EDGE('',*,*,#394,.T.);
#540=ORIENTED_EDGE('',*,*,#397,.F.);
#541=ORIENTED_EDGE('',*,*,#398,.F.);
#542=ORIENTED_EDGE('',*,*,#397,.T.);
#543=ORIENTED_EDGE('',*,*,#393,.T.);
#544=ORIENTED_EDGE('',*,*,#399,.T.);
#545=ORIENTED_EDGE('',*,*,#400,.T.);
#546=ORIENTED_EDGE('',*,*,#395,.T.);
#547=ORIENTED_EDGE('',*,*,#396,.T.);
#548=ORIENTED_EDGE('',*,*,#401,.F.);
#549=ORIENTED_EDGE('',*,*,#375,.F.);
#550=ORIENTED_EDGE('',*,*,#391,.F.);
#551=ORIENTED_EDGE('',*,*,#402,.T.);
#552=ORIENTED_EDGE('',*,*,#403,.F.);
#553=ORIENTED_EDGE('',*,*,#404,.F.);
#554=ORIENTED_EDGE('',*,*,#404,.T.);
#555=ORIENTED_EDGE('',*,*,#405,.F.);
#556=ORIENTED_EDGE('',*,*,#386,.F.);
#557=ORIENTED_EDGE('',*,*,#380,.F.);
#558=ORIENTED_EDGE('',*,*,#371,.T.);
#559=ORIENTED_EDGE('',*,*,#389,.F.);
#560=ORIENTED_EDGE('',*,*,#406,.T.);
#561=ORIENTED_EDGE('',*,*,#387,.T.);
#562=ORIENTED_EDGE('',*,*,#405,.T.);
#563=ORIENTED_EDGE('',*,*,#403,.T.);
#564=ORIENTED_EDGE('',*,*,#392,.T.);
#565=ORIENTED_EDGE('',*,*,#384,.T.);
#566=ORIENTED_EDGE('',*,*,#407,.T.);
#567=ORIENTED_EDGE('',*,*,#399,.F.);
#568=ORIENTED_EDGE('',*,*,#369,.T.);
#569=ORIENTED_EDGE('',*,*,#361,.T.);
#570=ORIENTED_EDGE('',*,*,#337,.F.);
#571=ORIENTED_EDGE('',*,*,#382,.T.);
#572=ORIENTED_EDGE('',*,*,#388,.T.);
#573=ORIENTED_EDGE('',*,*,#406,.F.);
#574=ORIENTED_EDGE('',*,*,#402,.F.);
#575=ORIENTED_EDGE('',*,*,#390,.F.);
#576=ORIENTED_EDGE('',*,*,#368,.F.);
#577=ORIENTED_EDGE('',*,*,#363,.F.);
#578=ORIENTED_EDGE('',*,*,#376,.T.);
#579=ORIENTED_EDGE('',*,*,#401,.T.);
#580=ORIENTED_EDGE('',*,*,#398,.T.);
#581=ORIENTED_EDGE('',*,*,#400,.F.);
#582=ORIENTED_EDGE('',*,*,#407,.F.);
#583=ORIENTED_EDGE('',*,*,#383,.F.);
#584=PLANE('',#666);
#585=PLANE('',#667);
#586=PLANE('',#668);
#587=PLANE('',#669);
#588=PLANE('',#670);
#589=PLANE('',#671);
#590=PLANE('',#677);
#591=PLANE('',#681);
#592=PLANE('',#682);
#593=PLANE('',#683);
#594=PLANE('',#684);
#595=PLANE('',#685);
#596=PLANE('',#686);
#597=PLANE('',#687);
#598=PLANE('',#688);
#599=PLANE('',#689);
#600=PLANE('',#690);
#601=PLANE('',#691);
#602=PLANE('',#692);
#603=PLANE('',#693);
#604=PLANE('',#694);
#605=PLANE('',#695);
#606=PLANE('',#696);
#607=PLANE('',#697);
#608=PLANE('',#698);
#609=PLANE('',#699);
#610=PLANE('',#700);
#611=PLANE('',#701);
#612=PLANE('',#702);
#613=PLANE('',#703);
#614=PLANE('',#704);
#615=PLANE('',#705);
#616=ADVANCED_FACE('',(#30),#584,.F.);
#617=ADVANCED_FACE('',(#31),#585,.F.);
#618=ADVANCED_FACE('',(#32),#28,.F.);
#619=ADVANCED_FACE('',(#33),#29,.F.);
#620=ADVANCED_FACE('',(#34),#586,.F.);
#621=ADVANCED_FACE('',(#35),#587,.F.);
#622=ADVANCED_FACE('',(#36),#588,.T.);
#623=ADVANCED_FACE('',(#37),#589,.F.);
#624=ADVANCED_FACE('',(#38),#20,.F.);
#625=ADVANCED_FACE('',(#39),#590,.F.);
#626=ADVANCED_FACE('',(#40,#15),#21,.F.);
#627=ADVANCED_FACE('',(#41),#591,.F.);
#628=ADVANCED_FACE('',(#42,#16),#592,.T.);
#629=ADVANCED_FACE('',(#43,#17),#593,.T.);
#630=ADVANCED_FACE('',(#44),#594,.T.);
#631=ADVANCED_FACE('',(#45),#595,.T.);
#632=ADVANCED_FACE('',(#46),#596,.T.);
#633=ADVANCED_FACE('',(#47),#597,.T.);
#634=ADVANCED_FACE('',(#48),#598,.T.);
#635=ADVANCED_FACE('',(#49),#599,.T.);
#636=ADVANCED_FACE('',(#50),#600,.F.);
#637=ADVANCED_FACE('',(#51),#601,.F.);
#638=ADVANCED_FACE('',(#52),#602,.T.);
#639=ADVANCED_FACE('',(#53),#603,.T.);
#640=ADVANCED_FACE('',(#54),#604,.T.);
#641=ADVANCED_FACE('',(#55),#605,.T.);
#642=ADVANCED_FACE('',(#56),#606,.T.);
#643=ADVANCED_FACE('',(#57),#607,.T.);
#644=ADVANCED_FACE('',(#58),#608,.T.);
#645=ADVANCED_FACE('',(#59),#609,.T.);
#646=ADVANCED_FACE('',(#60),#610,.T.);
#647=ADVANCED_FACE('',(#61),#611,.T.);
#648=ADVANCED_FACE('',(#62),#612,.T.);
#649=ADVANCED_FACE('',(#63),#613,.T.);
#650=ADVANCED_FACE('',(#64),#614,.T.);
#651=ADVANCED_FACE('',(#65),#615,.T.);
#652=CLOSED_SHELL('',(#616,#617,#618,#619,#620,#621,#622,#623,#624,#625,
#626,#627,#628,#629,#630,#631,#632,#633,#634,#635,#636,#637,#638,#639,#640,
#641,#642,#643,#644,#645,#646,#647,#648,#649,#650,#651));
#653=DERIVED_UNIT_ELEMENT(#655,1.);
#654=DERIVED_UNIT_ELEMENT(#1117,-3.);
#655=(
MASS_UNIT()
NAMED_UNIT(*)
SI_UNIT(.KILO.,.GRAM.)
);
#656=DERIVED_UNIT((#653,#654));
#657=MEASURE_REPRESENTATION_ITEM('density measure',
POSITIVE_RATIO_MEASURE(1060.),#656);
#658=PROPERTY_DEFINITION_REPRESENTATION(#663,#660);
#659=PROPERTY_DEFINITION_REPRESENTATION(#664,#661);
#660=REPRESENTATION('material name',(#662),#1114);
#661=REPRESENTATION('density',(#657),#1114);
#662=DESCRIPTIVE_REPRESENTATION_ITEM('ABS Plastic','ABS Plastic');
#663=PROPERTY_DEFINITION('material property','material name',#1124);
#664=PROPERTY_DEFINITION('material property','density of part',#1124);
#665=AXIS2_PLACEMENT_3D('',#868,#706,#707);
#666=AXIS2_PLACEMENT_3D('',#869,#708,#709);
#667=AXIS2_PLACEMENT_3D('',#876,#713,#714);
#668=AXIS2_PLACEMENT_3D('',#924,#724,#725);
#669=AXIS2_PLACEMENT_3D('',#930,#729,#730);
#670=AXIS2_PLACEMENT_3D('',#934,#733,#734);
#671=AXIS2_PLACEMENT_3D('',#940,#738,#739);
#672=AXIS2_PLACEMENT_3D('',#944,#741,#742);
#673=AXIS2_PLACEMENT_3D('',#945,#743,#744);
#674=AXIS2_PLACEMENT_3D('',#947,#745,#746);
#675=AXIS2_PLACEMENT_3D('',#951,#748,#749);
#676=AXIS2_PLACEMENT_3D('',#989,#750,#751);
#677=AXIS2_PLACEMENT_3D('',#990,#752,#753);
#678=AXIS2_PLACEMENT_3D('',#992,#755,#756);
#679=AXIS2_PLACEMENT_3D('',#994,#757,#758);
#680=AXIS2_PLACEMENT_3D('',#997,#760,#761);
#681=AXIS2_PLACEMENT_3D('',#998,#762,#763);
#682=AXIS2_PLACEMENT_3D('',#999,#764,#765);
#683=AXIS2_PLACEMENT_3D('',#1008,#770,#771);
#684=AXIS2_PLACEMENT_3D('',#1014,#775,#776);
#685=AXIS2_PLACEMENT_3D('',#1025,#783,#784);
#686=AXIS2_PLACEMENT_3D('',#1028,#787,#788);
#687=AXIS2_PLACEMENT_3D('',#1030,#790,#791);
#688=AXIS2_PLACEMENT_3D('',#1031,#792,#793);
#689=AXIS2_PLACEMENT_3D('',#1033,#795,#796);
#690=AXIS2_PLACEMENT_3D('',#1049,#805,#806);
#691=AXIS2_PLACEMENT_3D('',#1052,#809,#810);
#692=AXIS2_PLACEMENT_3D('',#1054,#812,#813);
#693=AXIS2_PLACEMENT_3D('',#1060,#817,#818);
#694=AXIS2_PLACEMENT_3D('',#1066,#822,#823);
#695=AXIS2_PLACEMENT_3D('',#1072,#827,#828);
#696=AXIS2_PLACEMENT_3D('',#1078,#832,#833);
#697=AXIS2_PLACEMENT_3D('',#1086,#838,#839);
#698=AXIS2_PLACEMENT_3D('',#1092,#843,#844);
#699=AXIS2_PLACEMENT_3D('',#1096,#847,#848);
#700=AXIS2_PLACEMENT_3D('',#1098,#850,#851);
#701=AXIS2_PLACEMENT_3D('',#1104,#855,#856);
#702=AXIS2_PLACEMENT_3D('',#1106,#858,#859);
#703=AXIS2_PLACEMENT_3D('',#1108,#861,#862);
#704=AXIS2_PLACEMENT_3D('',#1110,#864,#865);
#705=AXIS2_PLACEMENT_3D('',#1111,#866,#867);
#706=DIRECTION('axis',(0.,0.,1.));
#707=DIRECTION('refdir',(1.,0.,0.));
#708=DIRECTION('center_axis',(-0.928476690885259,-0.371390676354104,1.3179721414907E-15));
#709=DIRECTION('ref_axis',(1.41949943862788E-15,0.,1.));
#710=DIRECTION('',(-1.16573417585641E-15,-8.88178419700125E-16,-1.));
#711=DIRECTION('',(-0.371390676354104,0.928476690885259,4.32942804020408E-16));
#712=DIRECTION('',(0.353208628550679,-0.883021571376696,0.309057549981844));
#713=DIRECTION('center_axis',(1.28285919158265E-15,0.330350424728107,0.943858356366017));
#714=DIRECTION('ref_axis',(1.,0.,-1.35916494559823E-15));
#715=DIRECTION('',(-1.,0.,9.49449394972712E-16));
#716=DIRECTION('',(-1.,-1.60389250262031E-45,9.49449394972712E-16));
#717=DIRECTION('',(0.147838569408458,-0.933486773714317,0.326720370800011));
#718=DIRECTION('',(-1.,0.,9.49449394972712E-16));
#719=DIRECTION('',(-0.444075326425564,0.89598945555181,5.17673784668873E-16));
#720=DIRECTION('',(2.33541160538944E-14,-0.570909960907035,0.821012677452138));
#721=DIRECTION('',(-1.,0.,9.49449394972712E-16));
#722=DIRECTION('',(-0.444075326425584,-0.8959894555518,5.17673784668896E-16));
#723=DIRECTION('',(-0.147838569408457,-0.933486773714317,0.326720370800012));
#724=DIRECTION('center_axis',(1.2880281912747E-15,0.330350424728107,0.943858356366017));
#725=DIRECTION('ref_axis',(1.,0.,-1.36464140258692E-15));
#726=DIRECTION('',(-1.,0.,9.49449394972712E-16));
#727=DIRECTION('',(-1.,-1.60389250262031E-45,9.49449394972712E-16));
#728=DIRECTION('',(-0.353208628550677,-0.883021571376696,0.309057549981845));
#729=DIRECTION('center_axis',(0.92847669088526,-0.371390676354103,-8.46741878611342E-16));
#730=DIRECTION('ref_axis',(-9.11968913084951E-16,0.,-1.));
#731=DIRECTION('',(-1.16573417585641E-15,-8.88178419700125E-16,-1.));
#732=DIRECTION('',(-0.371390676354103,-0.928476690885259,4.32942804020407E-16));
#733=DIRECTION('center_axis',(-1.16573417585641E-15,0.,-1.));
#734=DIRECTION('ref_axis',(-1.,0.,1.16573417585641E-15));
#735=DIRECTION('',(-3.70074341541719E-16,1.,-8.13270117459277E-16));
#736=DIRECTION('',(1.,1.60389250262031E-45,-9.49449394972712E-16));
#737=DIRECTION('',(-1.75897949153943E-31,-1.,2.05050250791805E-46));
#738=DIRECTION('center_axis',(-9.49449394972712E-16,-8.13270117459278E-16,
-1.));
#739=DIRECTION('ref_axis',(1.,0.,-9.49449394972712E-16));
#740=DIRECTION('',(-8.08890576642639E-31,1.,-6.93889390390723E-16));
#741=DIRECTION('center_axis',(9.49449394972712E-16,8.13270117459278E-16,
1.));
#742=DIRECTION('ref_axis',(1.,-1.20062171806547E-31,-1.16573417585641E-15));
#743=DIRECTION('center_axis',(-1.16573417585641E-15,-5.55111512312578E-16,
-1.));
#744=DIRECTION('ref_axis',(1.,-1.20062171806547E-31,-1.16573417585641E-15));
#745=DIRECTION('center_axis',(-9.49449394972712E-16,-8.13270117459278E-16,
-1.));
#746=DIRECTION('ref_axis',(1.,-1.20062171806547E-31,-1.16573417585641E-15));
#747=DIRECTION('',(-1.16573417585641E-15,-5.55111512312578E-16,-1.));
#748=DIRECTION('center_axis',(9.49449394972712E-16,8.13270117459278E-16,
1.));
#749=DIRECTION('ref_axis',(1.,-1.20062171806547E-31,-1.16573417585641E-15));
#750=DIRECTION('center_axis',(9.49449394972712E-16,8.13270117459278E-16,
1.));
#751=DIRECTION('ref_axis',(1.,-1.20062171806547E-31,-1.16573417585641E-15));
#752=DIRECTION('center_axis',(-9.49449394972712E-16,-8.13270117459278E-16,
-1.));
#753=DIRECTION('ref_axis',(1.,0.,-9.49449394972712E-16));
#754=DIRECTION('',(8.08890576642639E-31,-1.,6.93889390390723E-16));
#755=DIRECTION('center_axis',(8.08890576642639E-31,-1.,6.93889390390723E-16));
#756=DIRECTION('ref_axis',(-1.,0.,1.16573417585641E-15));
#757=DIRECTION('center_axis',(7.02733719343419E-31,-1.,7.40148683083438E-16));
#758=DIRECTION('ref_axis',(-1.,0.,1.16573417585641E-15));
#759=DIRECTION('',(8.08890576642639E-31,-1.,6.93889390390723E-16));
#760=DIRECTION('center_axis',(7.02733719343419E-31,-1.,7.40148683083438E-16));
#761=DIRECTION('ref_axis',(-1.,1.60082895742063E-31,1.16573417585641E-15));
#762=DIRECTION('center_axis',(7.02733719343419E-31,-1.,7.40148683083438E-16));
#763=DIRECTION('ref_axis',(-1.,1.60082895742063E-31,1.16573417585641E-15));
#764=DIRECTION('center_axis',(-7.02733719343419E-31,1.,-7.40148683083438E-16));
#765=DIRECTION('ref_axis',(1.,0.,-9.49449394972712E-16));
#766=DIRECTION('',(-1.,0.,9.49449394972712E-16));
#767=DIRECTION('',(-1.16573417585641E-15,-7.40148683083438E-16,-1.));
#768=DIRECTION('',(1.,0.,-9.49449394972712E-16));
#769=DIRECTION('',(-1.16573417585641E-15,-7.40148683083438E-16,-1.));
#770=DIRECTION('center_axis',(9.49449394972712E-16,8.13270117459278E-16,
1.));
#771=DIRECTION('ref_axis',(-1.,0.,9.49449394972712E-16));
#772=DIRECTION('',(7.72158820971097E-31,-1.,8.13270117459277E-16));
#773=DIRECTION('',(-1.,-1.60389250262031E-45,9.49449394972712E-16));
#774=DIRECTION('',(-4.44089209850063E-16,1.,-8.13270117459277E-16));
#775=DIRECTION('center_axis',(-1.60389250262031E-45,1.,1.86971230470437E-60));
#776=DIRECTION('ref_axis',(1.,1.60389250262031E-45,-9.49449394972712E-16));
#777=DIRECTION('',(1.16573417585641E-15,5.27186704789272E-76,1.));
#778=DIRECTION('',(-1.16573417585641E-15,2.08811784066915E-91,-1.));
#779=DIRECTION('',(-1.16573417585641E-15,0.,-1.));
#780=DIRECTION('',(1.,1.60389250262031E-45,-9.49449394972712E-16));
#781=DIRECTION('',(-1.16573417585641E-15,0.,-1.));
#782=DIRECTION('',(1.,1.60389250262031E-45,-9.49449394972712E-16));
#783=DIRECTION('center_axis',(1.,-1.75897949153943E-31,-1.16573417585641E-15));
#784=DIRECTION('ref_axis',(7.72158820971097E-31,-1.,8.13270117459277E-16));
#785=DIRECTION('',(1.75897949153943E-31,1.,-2.05050250791805E-46));
#786=DIRECTION('',(4.44089209850063E-16,-1.,8.13270117459277E-16));
#787=DIRECTION('center_axis',(-1.,1.75897949153943E-31,1.16573417585641E-15));
#788=DIRECTION('ref_axis',(-7.72158820971097E-31,1.,-8.13270117459277E-16));
#789=DIRECTION('',(-7.72158820971097E-31,1.,-8.13270117459277E-16));
#790=DIRECTION('center_axis',(-1.16573417585641E-15,-8.88178419700125E-16,
-1.));
#791=DIRECTION('ref_axis',(-1.,0.,1.16573417585641E-15));
#792=DIRECTION('center_axis',(-1.16573417585641E-15,0.,-1.));
#793=DIRECTION('ref_axis',(-1.,0.,1.16573417585641E-15));
#794=DIRECTION('',(9.25185853854298E-16,-1.,8.13270117459277E-16));
#795=DIRECTION('center_axis',(9.49449394972712E-16,8.13270117459278E-16,
1.));
#796=DIRECTION('ref_axis',(1.,1.60389250262031E-45,-9.49449394972712E-16));
#797=DIRECTION('',(-3.70074341541719E-16,1.,-8.13270117459277E-16));
#798=DIRECTION('',(1.,-3.1720657846433E-16,-9.49449394972711E-16));
#799=DIRECTION('',(-7.72158820971099E-31,1.,-8.13270117459277E-16));
#800=DIRECTION('',(0.444075326425584,0.8959894555518,-1.15030849975597E-15));
#801=DIRECTION('',(0.444075326425564,-0.89598945555181,3.07054399761833E-16));
#802=DIRECTION('',(-1.48029736616688E-15,-1.,8.13270117459279E-16));
#803=DIRECTION('',(1.,-3.1720657846433E-16,-9.49449394972711E-16));
#804=DIRECTION('',(9.25185853854298E-16,-1.,8.13270117459277E-16));
#805=DIRECTION('center_axis',(-0.8959894555518,0.444075326425584,1.04448552954372E-15));
#806=DIRECTION('ref_axis',(0.444075326425584,0.8959894555518,-1.15030849975597E-15));
#807=DIRECTION('',(-1.16573417585641E-15,0.,-1.));
#808=DIRECTION('',(1.16573417585641E-15,0.,1.));
#809=DIRECTION('center_axis',(0.89598945555181,0.444075326425564,-1.04448552954373E-15));
#810=DIRECTION('ref_axis',(0.444075326425564,-0.89598945555181,3.07054399761833E-16));
#811=DIRECTION('',(-1.16573417585641E-15,0.,-1.));
#812=DIRECTION('center_axis',(1.60389250262031E-45,-1.,-1.86971230470437E-60));
#813=DIRECTION('ref_axis',(-1.,-1.60389250262031E-45,9.49449394972712E-16));
#814=DIRECTION('',(8.29302956273034E-16,-5.39599510737192E-61,1.));
#815=DIRECTION('',(1.,1.60389250262031E-45,-1.16573417585641E-15));
#816=DIRECTION('',(8.69674702623039E-16,5.9211894646675E-16,1.));
#817=DIRECTION('center_axis',(1.60389250262031E-45,-1.,-1.86971230470437E-60));
#818=DIRECTION('ref_axis',(-1.,-1.60389250262031E-45,9.49449394972712E-16));
#819=DIRECTION('',(8.69674702623039E-16,5.9211894646675E-16,1.));
#820=DIRECTION('',(1.,1.60389250262031E-45,-1.16573417585641E-15));
#821=DIRECTION('',(-8.29302956273033E-16,5.39599510737194E-61,-1.));
#822=DIRECTION('center_axis',(8.69674702623039E-16,5.9211894646675E-16,
1.));
#823=DIRECTION('ref_axis',(1.,0.,-8.69674702623039E-16));
#824=DIRECTION('',(-2.58844984525644E-31,1.,-2.22044604925031E-16));
#825=DIRECTION('',(1.,5.24610879767909E-16,-1.50734126035645E-15));
#826=DIRECTION('',(-2.58844984525644E-31,1.,-2.22044604925031E-16));
#827=DIRECTION('center_axis',(3.1720657846433E-16,1.,-5.9211894646675E-16));
#828=DIRECTION('ref_axis',(-1.,3.1720657846433E-16,1.16573417585641E-15));
#829=DIRECTION('',(-8.29302956273034E-16,-5.9211894646675E-16,-1.));
#830=DIRECTION('',(8.69674702623039E-16,5.9211894646675E-16,1.));
#831=DIRECTION('',(1.,-3.17206578464328E-16,2.84814906701902E-15));
#832=DIRECTION('center_axis',(-1.,2.21867129593411E-29,1.01085806392121E-13));
#833=DIRECTION('ref_axis',(1.01085806392121E-13,5.92118946466734E-16,1.));
#834=DIRECTION('',(-1.48029736616688E-15,-1.,5.92118946466752E-16));
#835=DIRECTION('',(1.01085806392121E-13,5.92118946466734E-16,1.));
#836=DIRECTION('',(-2.58844984525644E-31,1.,-2.22044604925031E-16));
#837=DIRECTION('',(8.29302956273034E-16,5.9211894646675E-16,1.));
#838=DIRECTION('center_axis',(-6.28984044335698E-15,-2.22044604925031E-16,
-1.));
#839=DIRECTION('ref_axis',(-1.,1.58603289232168E-16,6.28984044335698E-15));
#840=DIRECTION('',(1.,-3.17206578464334E-16,-6.28984044335698E-15));
#841=DIRECTION('',(-1.,1.58603289232168E-16,6.28984044335698E-15));
#842=DIRECTION('',(-2.58844984525644E-31,1.,-2.22044604925031E-16));
#843=DIRECTION('center_axis',(-2.58844984525644E-31,1.,-2.22044604925031E-16));
#844=DIRECTION('ref_axis',(1.16573417585641E-15,2.22044604925031E-16,1.));
#845=DIRECTION('',(1.,-1.58603289232165E-16,-1.16573417585641E-15));
#846=DIRECTION('',(-1.16573417585641E-15,-5.9211894646675E-16,-1.));
#847=DIRECTION('center_axis',(3.1720657846433E-16,1.,-5.9211894646675E-16));
#848=DIRECTION('ref_axis',(-1.,3.1720657846433E-16,1.16573417585641E-15));
#849=DIRECTION('',(8.69674702623039E-16,5.9211894646675E-16,1.));
#850=DIRECTION('center_axis',(2.84814906701902E-15,-2.22044604925031E-16,
-1.));
#851=DIRECTION('ref_axis',(-1.,1.58603289232163E-16,-2.84814906701902E-15));
#852=DIRECTION('',(-2.58844984525644E-31,1.,-2.22044604925031E-16));
#853=DIRECTION('',(-1.,1.58603289232163E-16,-2.84814906701902E-15));
#854=DIRECTION('',(-2.58844984525644E-31,1.,-2.22044604925031E-16));
#855=DIRECTION('center_axis',(1.,-2.08526557191193E-47,-1.16573417585641E-15));
#856=DIRECTION('ref_axis',(-1.16573417585641E-15,-5.9211894646675E-16,-1.));
#857=DIRECTION('',(-1.16573417585641E-15,-5.9211894646675E-16,-1.));
#858=DIRECTION('center_axis',(-2.58844984525644E-31,1.,-2.22044604925031E-16));
#859=DIRECTION('ref_axis',(1.16573417585641E-15,2.22044604925031E-16,1.));
#860=DIRECTION('',(1.16573417585641E-15,-5.18104078158406E-16,1.));
#861=DIRECTION('center_axis',(8.69674702623039E-16,5.9211894646675E-16,
1.));
#862=DIRECTION('ref_axis',(1.,0.,-8.69674702623039E-16));
#863=DIRECTION('',(-9.25185853854297E-16,1.,1.07852076885685E-30));
#864=DIRECTION('center_axis',(-1.,-3.70074341541719E-16,1.16573417585641E-15));
#865=DIRECTION('ref_axis',(-3.70074341541719E-16,1.,-8.13270117459277E-16));
#866=DIRECTION('center_axis',(1.,9.25185853854297E-16,-1.16573417585641E-15));
#867=DIRECTION('ref_axis',(9.25185853854298E-16,-1.,8.13270117459277E-16));
#868=CARTESIAN_POINT('',(0.,0.,0.));
#869=CARTESIAN_POINT('Origin',(-1.09238979088982,43.9922403921187,-3.65000000000008));
#870=CARTESIAN_POINT('',(-1.09238979088982,43.9922403921187,-3.65000000000008));
#871=CARTESIAN_POINT('',(-1.09238979088982,43.9922403921187,-7.15000000000009));
#872=CARTESIAN_POINT('',(-1.09238979088982,43.9922403921187,-2.15000000000009));
#873=CARTESIAN_POINT('',(2.90761020911019,33.9922403921187,-3.65000000000009));
#874=CARTESIAN_POINT('',(-0.609631170200164,42.7853438403945,-3.65000000000008));
#875=CARTESIAN_POINT('',(-1.09238979088982,43.9922403921187,-7.15000000000009));
#876=CARTESIAN_POINT('Origin',(-1.09238979088982,43.9922403921187,-7.15000000000009));
#877=CARTESIAN_POINT('',(-1.9261140982007,43.9922403921187,-7.15000000000009));
#878=CARTESIAN_POINT('',(-7.09238979088983,43.9922403921187,-7.15000000000009));
#879=CARTESIAN_POINT('',(-0.342389790889821,33.9922403921187,-3.65000000000008));
#880=CARTESIAN_POINT('',(2.90761020911019,33.9922403921187,-3.65000000000009));
#881=CARTESIAN_POINT('',(-1.9261140982007,43.9922403921187,-7.15000000000009));
#882=CARTESIAN_POINT('Ctrl Pts',(-1.92611409820071,43.9922403921187,-7.15000000000009));
#883=CARTESIAN_POINT('Ctrl Pts',(-1.39820599576374,40.6589070587853,-5.98333333333342));
#884=CARTESIAN_POINT('Ctrl Pts',(-0.870297893326783,37.325573725452,-4.81666666666676));
#885=CARTESIAN_POINT('Ctrl Pts',(-0.342389790889821,33.9922403921187,-3.65000000000009));
#886=CARTESIAN_POINT('Ctrl Pts',(-2.64820599576374,43.9922403921187,-7.15000000000009));
#887=CARTESIAN_POINT('Ctrl Pts',(-2.29626726080576,41.4995953780807,-5.98333333333342));
#888=CARTESIAN_POINT('Ctrl Pts',(-1.94432852584777,39.0069503640427,-4.81666666666676));
#889=CARTESIAN_POINT('Ctrl Pts',(-1.59238979088979,36.5143053500047,-3.65000000000009));
#890=CARTESIAN_POINT('Ctrl Pts',(-3.37029789332678,43.9922403921187,-7.15000000000009));
#891=CARTESIAN_POINT('Ctrl Pts',(-3.19432852584777,42.3402836973761,-5.98333333333342));
#892=CARTESIAN_POINT('Ctrl Pts',(-3.01835915836876,40.6883270026334,-4.81666666666675));
#893=CARTESIAN_POINT('Ctrl Pts',(-2.84238979088975,39.0363703078908,-3.65000000000008));
#894=CARTESIAN_POINT('Ctrl Pts',(-4.09238979088982,43.9922403921187,-7.15000000000009));
#895=CARTESIAN_POINT('Ctrl Pts',(-4.09238979088978,43.1809720166714,-5.98333333333342));
#896=CARTESIAN_POINT('Ctrl Pts',(-4.09238979088975,42.3697036412241,-4.81666666666675));
#897=CARTESIAN_POINT('Ctrl Pts',(-4.09238979088972,41.5584352657769,-3.65000000000008));
#898=CARTESIAN_POINT('',(-4.09238979088981,43.9922403921187,-7.15000000000009));
#899=CARTESIAN_POINT('',(-7.09238979088983,43.9922403921187,-7.15000000000009));
#900=CARTESIAN_POINT('',(-4.09238979088972,41.5584352657769,-3.65000000000008));
#901=CARTESIAN_POINT('',(-3.78080564987132,40.9297669109804,-3.65000000000008));
#902=CARTESIAN_POINT('',(-4.09238979088981,43.9922403921187,-7.15000000000009));
#903=CARTESIAN_POINT('Ctrl Pts',(-4.09238979088982,43.9922403921187,-7.15000000000009));
#904=CARTESIAN_POINT('Ctrl Pts',(-4.09238979088978,43.1809720166714,-5.98333333333342));
#905=CARTESIAN_POINT('Ctrl Pts',(-4.09238979088975,42.3697036412241,-4.81666666666675));
#906=CARTESIAN_POINT('Ctrl Pts',(-4.09238979088972,41.5584352657769,-3.65000000000008));
#907=CARTESIAN_POINT('Ctrl Pts',(-4.81448168845286,43.9922403921187,-7.15000000000009));
#908=CARTESIAN_POINT('Ctrl Pts',(-4.99045105593182,42.3402836973761,-5.98333333333342));
#909=CARTESIAN_POINT('Ctrl Pts',(-5.16642042341079,40.6883270026334,-4.81666666666675));
#910=CARTESIAN_POINT('Ctrl Pts',(-5.34238979088975,39.0363703078908,-3.65000000000008));
#911=CARTESIAN_POINT('Ctrl Pts',(-5.5365735860159,43.9922403921187,-7.15000000000009));
#912=CARTESIAN_POINT('Ctrl Pts',(-5.88851232097387,41.4995953780807,-5.98333333333342));
#913=CARTESIAN_POINT('Ctrl Pts',(-6.24045105593183,39.0069503640427,-4.81666666666675));
#914=CARTESIAN_POINT('Ctrl Pts',(-6.59238979088979,36.5143053500047,-3.65000000000008));
#915=CARTESIAN_POINT('Ctrl Pts',(-6.25866548357895,43.9922403921187,-7.15000000000009));
#916=CARTESIAN_POINT('Ctrl Pts',(-6.78657358601591,40.6589070587853,-5.98333333333342));
#917=CARTESIAN_POINT('Ctrl Pts',(-7.31448168845286,37.325573725452,-4.81666666666675));
#918=CARTESIAN_POINT('Ctrl Pts',(-7.84238979088982,33.9922403921187,-3.65000000000008));
#919=CARTESIAN_POINT('',(-6.25866548357895,43.9922403921187,-7.15000000000009));
#920=CARTESIAN_POINT('',(-7.09238979088983,43.9922403921187,-7.15000000000009));
#921=CARTESIAN_POINT('',(-7.84238979088982,33.9922403921187,-3.65000000000008));
#922=CARTESIAN_POINT('',(-6.2789739319082,37.1466694741513,-3.65000000000008));
#923=CARTESIAN_POINT('',(-6.25866548357895,43.9922403921187,-7.15000000000009));
#924=CARTESIAN_POINT('Origin',(-6.25866548357895,43.9922403921187,-7.15000000000009));
#925=CARTESIAN_POINT('',(-7.09238979088983,43.9922403921187,-7.15000000000009));
#926=CARTESIAN_POINT('',(-7.09238979088983,43.9922403921187,-7.15000000000009));
#927=CARTESIAN_POINT('',(-11.0923897908898,33.9922403921187,-3.65000000000008));
#928=CARTESIAN_POINT('',(2.90761020911019,33.9922403921187,-3.65000000000009));
#929=CARTESIAN_POINT('',(-7.09238979088983,43.9922403921187,-7.15000000000009));
#930=CARTESIAN_POINT('Origin',(-7.09238979088983,43.9922403921187,-7.15000000000009));
#931=CARTESIAN_POINT('',(-7.09238979088982,43.9922403921187,-3.65000000000008));
#932=CARTESIAN_POINT('',(-7.09238979088982,43.9922403921187,-2.15000000000009));
#933=CARTESIAN_POINT('',(-7.57514841157948,42.7853438403945,-3.65000000000008));
#934=CARTESIAN_POINT('Origin',(-4.09238979088982,39.9922403921187,-3.65000000000008));
#935=CARTESIAN_POINT('',(-11.0923897908898,45.9922403921187,-3.65000000000009));
#936=CARTESIAN_POINT('',(-11.0923897908898,33.9922403921187,-3.65000000000008));
#937=CARTESIAN_POINT('',(-7.09238979088982,45.9922403921187,-3.65000000000008));
#938=CARTESIAN_POINT('',(-11.0923897908898,45.9922403921187,-3.65000000000009));
#939=CARTESIAN_POINT('',(-7.09238979088982,41.9922403921187,-3.65000000000008));
#940=CARTESIAN_POINT('Origin',(-4.09238979089021,48.4922403921187,-4.65000000000009));
#941=CARTESIAN_POINT('',(-3.25386429932751,47.5457546553009,-4.65000000000009));
#942=CARTESIAN_POINT('',(-3.25386429932751,49.4387261289365,-4.6500000000001));
#943=CARTESIAN_POINT('',(-3.25386429932751,50.9922403921187,-4.6500000000001));
#944=CARTESIAN_POINT('Origin',(-4.09238979089021,48.4922403921187,-4.65000000000009));
#945=CARTESIAN_POINT('Origin',(-4.09238979089021,48.4922403921187,-2.65000000000009));
#946=CARTESIAN_POINT('',(-5.3568897908902,48.4922403921187,-2.65000000000009));
#947=CARTESIAN_POINT('Origin',(-4.09238979089021,48.4922403921187,-2.65000000000009));
#948=CARTESIAN_POINT('',(-5.35688979089021,48.4922403921187,-4.65000000000009));
#949=CARTESIAN_POINT('',(-5.3568897908902,48.4922403921187,-2.65000000000009));
#950=CARTESIAN_POINT('',(-4.93091528245236,49.438726128937,-4.65000000000009));
#951=CARTESIAN_POINT('Origin',(-4.09238979089021,48.4922403921187,-4.65000000000009));
#952=CARTESIAN_POINT('Ctrl Pts',(-4.93091528245236,49.438726128937,-4.65000000000009));
#953=CARTESIAN_POINT('Ctrl Pts',(-4.92171688809659,49.4468753147606,-4.61914764740509));
#954=CARTESIAN_POINT('Ctrl Pts',(-4.91083780611147,49.4562752906491,-4.58889305179154));
#955=CARTESIAN_POINT('Ctrl Pts',(-4.85337596312164,49.5038115307777,-4.45288002758101));
#956=CARTESIAN_POINT('Ctrl Pts',(-4.78715838200239,49.5523635077764,-4.35733172403609));
#957=CARTESIAN_POINT('Ctrl Pts',(-4.63607778925061,49.6371269460858,-4.20625113128431));
#958=CARTESIAN_POINT('Ctrl Pts',(-4.54033418019254,49.679980809461,-4.13937644046858));
#959=CARTESIAN_POINT('Ctrl Pts',(-4.32567184064837,49.7400228218721,-4.04865875261915));
#960=CARTESIAN_POINT('Ctrl Pts',(-4.2065439726737,49.7567403921187,-4.02500000000009));
#961=CARTESIAN_POINT('Ctrl Pts',(-3.97823560910614,49.7567403921187,-4.02500000000009));
#962=CARTESIAN_POINT('Ctrl Pts',(-3.85910774113148,49.740022821872,-4.04865875261916));
#963=CARTESIAN_POINT('Ctrl Pts',(-3.6444454015873,49.6799808094607,-4.13937644046859));
#964=CARTESIAN_POINT('Ctrl Pts',(-3.54870179252923,49.6371269460855,-4.20625113128433));
#965=CARTESIAN_POINT('Ctrl Pts',(-3.39762119977746,49.5523635077761,-4.35733172403611));
#966=CARTESIAN_POINT('Ctrl Pts',(-3.33140361865822,49.5038115307773,-4.45288002758102));
#967=CARTESIAN_POINT('Ctrl Pts',(-3.27394177566839,49.4562752906486,-4.58889305179155));
#968=CARTESIAN_POINT('Ctrl Pts',(-3.26306269368327,49.4468753147601,-4.61914764740509));
#969=CARTESIAN_POINT('Ctrl Pts',(-3.25386429932751,49.4387261289365,-4.6500000000001));
#970=CARTESIAN_POINT('',(-4.93091528245236,47.5457546553004,-4.65000000000009));
#971=CARTESIAN_POINT('Ctrl Pts',(-3.25386429932751,47.5457546553009,-4.65000000000009));
#972=CARTESIAN_POINT('Ctrl Pts',(-3.26306269368327,47.5376054694772,-4.61914764740509));
#973=CARTESIAN_POINT('Ctrl Pts',(-3.27394177566839,47.5282054935887,-4.58889305179155));
#974=CARTESIAN_POINT('Ctrl Pts',(-3.33140361865822,47.4806692534601,-4.45288002758101));
#975=CARTESIAN_POINT('Ctrl Pts',(-3.39762119977746,47.4321172764613,-4.35733172403611));
#976=CARTESIAN_POINT('Ctrl Pts',(-3.54870179252923,47.3473538381519,-4.20625113128432));
#977=CARTESIAN_POINT('Ctrl Pts',(-3.6444454015873,47.3044999747766,-4.13937644046859));
#978=CARTESIAN_POINT('Ctrl Pts',(-3.85910774113148,47.2444579623654,-4.04865875261916));
#979=CARTESIAN_POINT('Ctrl Pts',(-3.97823560910615,47.2277403921187,-4.02500000000009));
#980=CARTESIAN_POINT('Ctrl Pts',(-4.2065439726737,47.2277403921187,-4.02500000000009));
#981=CARTESIAN_POINT('Ctrl Pts',(-4.32567184064837,47.2444579623653,-4.04865875261915));
#982=CARTESIAN_POINT('Ctrl Pts',(-4.54033418019254,47.3044999747764,-4.13937644046858));
#983=CARTESIAN_POINT('Ctrl Pts',(-4.63607778925061,47.3473538381516,-4.2062511312843));
#984=CARTESIAN_POINT('Ctrl Pts',(-4.78715838200239,47.4321172764609,-4.35733172403609));
#985=CARTESIAN_POINT('Ctrl Pts',(-4.85337596312164,47.4806692534597,-4.452880027581));
#986=CARTESIAN_POINT('Ctrl Pts',(-4.91083780611147,47.5282054935883,-4.58889305179154));
#987=CARTESIAN_POINT('Ctrl Pts',(-4.92171688809659,47.5376054694768,-4.61914764740509));
#988=CARTESIAN_POINT('Ctrl Pts',(-4.93091528245236,47.5457546553004,-4.65000000000009));
#989=CARTESIAN_POINT('Origin',(-4.09238979089021,48.4922403921187,-4.65000000000009));
#990=CARTESIAN_POINT('Origin',(-4.09238979089021,48.4922403921187,-4.65000000000009));
#991=CARTESIAN_POINT('',(-4.93091528245236,50.9922403921187,-4.6500000000001));
#992=CARTESIAN_POINT('Origin',(-4.09238979088993,50.9922403921187,-4.90000000000009));
#993=CARTESIAN_POINT('',(-3.21738979088993,50.9922403921187,-4.90000000000009));
#994=CARTESIAN_POINT('Origin',(-4.09238979088993,50.9922403921187,-4.90000000000009));
#995=CARTESIAN_POINT('',(-3.21738979088993,46.9922403921187,-4.90000000000009));
#996=CARTESIAN_POINT('',(-3.21738979088993,50.9922403921187,-4.90000000000009));
#997=CARTESIAN_POINT('Origin',(-4.09238979088993,46.9922403921187,-4.90000000000009));
#998=CARTESIAN_POINT('Origin',(-4.09238979088993,46.9922403921187,-4.90000000000009));
#999=CARTESIAN_POINT('Origin',(-7.09238979088982,50.9922403921187,-2.65000000000009));
#1000=CARTESIAN_POINT('',(-1.09238979088982,50.9922403921187,-2.6500000000001));
#1001=CARTESIAN_POINT('',(-7.09238979088982,50.9922403921187,-2.65000000000009));
#1002=CARTESIAN_POINT('',(-1.09238979088982,50.9922403921187,-2.6500000000001));
#1003=CARTESIAN_POINT('',(-1.09238979088983,50.9922403921187,-7.1500000000001));
#1004=CARTESIAN_POINT('',(-1.09238979088982,50.9922403921187,-2.6500000000001));
#1005=CARTESIAN_POINT('',(-7.09238979088983,50.9922403921187,-7.15000000000009));
#1006=CARTESIAN_POINT('',(-1.09238979088983,50.9922403921187,-7.1500000000001));
#1007=CARTESIAN_POINT('',(-7.09238979088982,50.9922403921187,-2.65000000000009));
#1008=CARTESIAN_POINT('Origin',(-4.09238979088982,48.4922403921187,-2.65000000000009));
#1009=CARTESIAN_POINT('',(-7.09238979088982,45.9922403921187,-2.65000000000009));
#1010=CARTESIAN_POINT('',(-7.09238979088982,50.9922403921187,-2.65000000000009));
#1011=CARTESIAN_POINT('',(-1.09238979088982,45.9922403921187,-2.65000000000009));
#1012=CARTESIAN_POINT('',(-7.59238979088982,45.9922403921187,-2.65000000000009));
#1013=CARTESIAN_POINT('',(-1.09238979088982,45.9922403921187,-2.65000000000009));
#1014=CARTESIAN_POINT('Origin',(-11.0923897908898,45.9922403921187,-2.15000000000009));
#1015=CARTESIAN_POINT('',(-1.09238979088982,45.9922403921187,-3.65000000000008));
#1016=CARTESIAN_POINT('',(-1.09238979088982,45.9922403921187,-2.4000000000001));
#1017=CARTESIAN_POINT('',(-7.09238979088981,45.9922403921187,-2.40000000000009));
#1018=CARTESIAN_POINT('',(-11.0923897908898,45.9922403921187,-2.15000000000009));
#1019=CARTESIAN_POINT('',(-11.0923897908898,45.9922403921187,-2.15000000000009));
#1020=CARTESIAN_POINT('',(2.90761020911018,45.9922403921187,-2.1500000000001));
#1021=CARTESIAN_POINT('',(-11.0923897908898,45.9922403921187,-2.15000000000009));
#1022=CARTESIAN_POINT('',(2.90761020911018,45.9922403921187,-3.6500000000001));
#1023=CARTESIAN_POINT('',(2.90761020911018,45.9922403921187,-2.1500000000001));
#1024=CARTESIAN_POINT('',(-11.0923897908898,45.9922403921187,-3.65000000000009));
#1025=CARTESIAN_POINT('Origin',(-1.09238979088982,45.9922403921187,-2.15000000000009));
#1026=CARTESIAN_POINT('',(-1.09238979088982,42.9922403921187,-3.65000000000008));
#1027=CARTESIAN_POINT('',(-1.09238979088982,45.9922403921187,-7.1500000000001));
#1028=CARTESIAN_POINT('Origin',(-7.09238979088982,43.9922403921187,-2.15000000000009));
#1029=CARTESIAN_POINT('',(-7.09238979088983,45.9922403921187,-7.15000000000009));
#1030=CARTESIAN_POINT('Origin',(-4.09238979088982,44.9922403921187,-7.15000000000009));
#1031=CARTESIAN_POINT('Origin',(-4.09238979088982,39.9922403921187,-3.65000000000008));
#1032=CARTESIAN_POINT('',(2.90761020911018,45.9922403921187,-3.6500000000001));
#1033=CARTESIAN_POINT('Origin',(-4.09238979088981,39.9922403921187,-2.15000000000009));
#1034=CARTESIAN_POINT('',(-11.0923897908898,35.4922403921187,-2.15000000000008));
#1035=CARTESIAN_POINT('',(-11.0923897908898,33.9922403921187,-2.15000000000008));
#1036=CARTESIAN_POINT('',(-7.84238979088982,35.4922403921187,-2.15000000000008));
#1037=CARTESIAN_POINT('',(-0.592389790889813,35.4922403921187,-2.15000000000009));
#1038=CARTESIAN_POINT('',(-7.84238979088982,33.9922403921187,-2.15000000000008));
#1039=CARTESIAN_POINT('',(-7.84238979088982,33.9922403921187,-2.15000000000008));
#1040=CARTESIAN_POINT('',(-4.09238979088971,41.5584352657769,-2.15000000000009));
#1041=CARTESIAN_POINT('',(-6.2789739319082,37.1466694741513,-2.15000000000008));
#1042=CARTESIAN_POINT('',(-0.342389790889819,33.9922403921187,-2.15000000000009));
#1043=CARTESIAN_POINT('',(-3.78080564987131,40.9297669109804,-2.15000000000009));
#1044=CARTESIAN_POINT('',(-0.342389790889817,35.4922403921187,-2.15000000000009));
#1045=CARTESIAN_POINT('',(-0.342389790889817,35.4922403921187,-2.15000000000009));
#1046=CARTESIAN_POINT('',(2.90761020911019,35.4922403921187,-2.15000000000009));
#1047=CARTESIAN_POINT('',(-0.592389790889813,35.4922403921187,-2.15000000000009));
#1048=CARTESIAN_POINT('',(2.90761020911018,45.9922403921187,-2.1500000000001));
#1049=CARTESIAN_POINT('Origin',(-7.84238979088982,33.9922403921187,-2.15000000000008));
#1050=CARTESIAN_POINT('',(-4.09238979088971,41.5584352657769,-2.15000000000009));
#1051=CARTESIAN_POINT('',(-7.84238979088982,33.9922403921187,-2.15000000000008));
#1052=CARTESIAN_POINT('Origin',(-4.09238979088971,41.5584352657769,-2.15000000000009));
#1053=CARTESIAN_POINT('',(-0.342389790889819,33.9922403921187,-2.15000000000009));
#1054=CARTESIAN_POINT('Origin',(2.90761020911019,33.9922403921187,-2.15000000000009));
#1055=CARTESIAN_POINT('',(-7.84238979088981,33.9922403921187,3.84999999999992));
#1056=CARTESIAN_POINT('',(-7.84238979088982,33.9922403921187,-2.15000000000008));
#1057=CARTESIAN_POINT('',(-11.0923897908898,33.9922403921187,3.84999999999993));
#1058=CARTESIAN_POINT('',(-0.592389790889809,33.9922403921187,3.84999999999992));
#1059=CARTESIAN_POINT('',(-11.0923897908898,33.9922403921187,-3.65000000000007));
#1060=CARTESIAN_POINT('Origin',(2.90761020911019,33.9922403921187,-2.15000000000009));
#1061=CARTESIAN_POINT('',(2.90761020911019,33.9922403921187,3.84999999999991));
#1062=CARTESIAN_POINT('',(2.90761020911019,33.9922403921187,-3.65000000000009));
#1063=CARTESIAN_POINT('',(-0.342389790889814,33.9922403921187,3.84999999999991));
#1064=CARTESIAN_POINT('',(-0.592389790889809,33.9922403921187,3.84999999999992));
#1065=CARTESIAN_POINT('',(-0.342389790889819,33.9922403921187,-2.15000000000009));
#1066=CARTESIAN_POINT('Origin',(-4.09238979088981,34.7422403921187,3.84999999999992));
#1067=CARTESIAN_POINT('',(-7.84238979088971,42.9922403921187,3.84999999999992));
#1068=CARTESIAN_POINT('',(-7.84238979088971,35.4922403921187,3.84999999999992));
#1069=CARTESIAN_POINT('',(-11.0923897908898,42.9922403921187,3.84999999999992));
#1070=CARTESIAN_POINT('',(-11.0923897908898,42.9922403921187,3.84999999999992));
#1071=CARTESIAN_POINT('',(-11.0923897908898,35.4922403921187,3.84999999999993));
#1072=CARTESIAN_POINT('Origin',(2.90761020911018,35.4922403921187,-3.65000000000009));
#1073=CARTESIAN_POINT('',(-7.84238979088971,35.4922403921187,1.84999999999994));
#1074=CARTESIAN_POINT('',(-7.84238979088982,35.4922403921187,-2.90000000000008));
#1075=CARTESIAN_POINT('',(-11.0923897908898,35.4922403921187,1.84999999999993));
#1076=CARTESIAN_POINT('',(-11.0923897908898,35.4922403921187,-3.65000000000007));
#1077=CARTESIAN_POINT('',(-2.46738979088977,35.4922403921187,1.84999999999995));
#1078=CARTESIAN_POINT('Origin',(-0.342389790889914,35.4922403921187,1.84999999999993));
#1079=CARTESIAN_POINT('',(-0.342389790889712,42.9922403921187,3.84999999999991));
#1080=CARTESIAN_POINT('',(-0.342389790889814,34.3672403921187,3.84999999999991));
#1081=CARTESIAN_POINT('',(-0.342389790889914,42.9922403921187,1.84999999999993));
#1082=CARTESIAN_POINT('',(-0.342389790889712,42.9922403921187,3.84999999999991));
#1083=CARTESIAN_POINT('',(-0.342389790889914,35.4922403921187,1.84999999999993));
#1084=CARTESIAN_POINT('',(-0.342389790889914,35.4922403921187,1.84999999999993));
#1085=CARTESIAN_POINT('',(-0.342389790889819,35.4922403921187,-2.90000000000009));
#1086=CARTESIAN_POINT('Origin',(2.90761020911019,35.4922403921187,1.84999999999991));
#1087=CARTESIAN_POINT('',(2.90761020911019,35.4922403921187,1.84999999999991));
#1088=CARTESIAN_POINT('',(2.9076102091102,35.4922403921187,1.84999999999991));
#1089=CARTESIAN_POINT('',(2.90761020911019,42.9922403921187,1.84999999999991));
#1090=CARTESIAN_POINT('',(-0.342389790889914,42.9922403921187,1.84999999999993));
#1091=CARTESIAN_POINT('',(2.90761020911019,35.4922403921187,1.84999999999991));
#1092=CARTESIAN_POINT('Origin',(1.28261020911014,42.9922403921187,2.84999999999991));
#1093=CARTESIAN_POINT('',(2.90761020911019,42.9922403921187,3.84999999999991));
#1094=CARTESIAN_POINT('',(2.90761020911019,42.9922403921187,3.84999999999991));
#1095=CARTESIAN_POINT('',(2.90761020911019,42.9922403921187,1.84999999999991));
#1096=CARTESIAN_POINT('Origin',(2.90761020911018,35.4922403921187,-3.65000000000009));
#1097=CARTESIAN_POINT('',(2.90761020911018,35.4922403921187,-3.65000000000009));
#1098=CARTESIAN_POINT('Origin',(-7.84238979088971,35.4922403921187,1.84999999999994));
#1099=CARTESIAN_POINT('',(-11.0923897908898,42.9922403921187,1.84999999999992));
#1100=CARTESIAN_POINT('',(-11.0923897908898,35.4922403921187,1.84999999999993));
#1101=CARTESIAN_POINT('',(-7.84238979088971,42.9922403921187,1.84999999999993));
#1102=CARTESIAN_POINT('',(-7.84238979088971,42.9922403921187,1.84999999999993));
#1103=CARTESIAN_POINT('',(-7.84238979088971,35.4922403921187,1.84999999999994));
#1104=CARTESIAN_POINT('Origin',(-7.84238979088971,35.4922403921187,3.84999999999992));
#1105=CARTESIAN_POINT('',(-7.84238979088971,42.9922403921187,3.84999999999992));
#1106=CARTESIAN_POINT('Origin',(-9.46738979088976,42.9922403921187,2.84999999999992));
#1107=CARTESIAN_POINT('',(-11.0923897908898,42.9922403921187,1.84999999999992));
#1108=CARTESIAN_POINT('Origin',(-4.09238979088981,34.7422403921187,3.84999999999992));
#1109=CARTESIAN_POINT('',(2.90761020911019,35.1172403921187,3.84999999999991));
#1110=CARTESIAN_POINT('Origin',(-11.0923897908898,33.9922403921187,-2.15000000000008));
#1111=CARTESIAN_POINT('Origin',(2.90761020911018,45.9922403921187,-2.1500000000001));
#1112=UNCERTAINTY_MEASURE_WITH_UNIT(LENGTH_MEASURE(0.01),#1116,
'DISTANCE_ACCURACY_VALUE',
'Maximum model space distance between geometric entities at asserted c
onnectivities');
#1113=UNCERTAINTY_MEASURE_WITH_UNIT(LENGTH_MEASURE(0.01),#1116,
'DISTANCE_ACCURACY_VALUE',
'Maximum model space distance between geometric entities at asserted c
onnectivities');
#1114=(
GEOMETRIC_REPRESENTATION_CONTEXT(3)
GLOBAL_UNCERTAINTY_ASSIGNED_CONTEXT((#1112))
GLOBAL_UNIT_ASSIGNED_CONTEXT((#1116,#1118,#1119))
REPRESENTATION_CONTEXT('','3D')
);
#1115=(
GEOMETRIC_REPRESENTATION_CONTEXT(3)
GLOBAL_UNCERTAINTY_ASSIGNED_CONTEXT((#1113))
GLOBAL_UNIT_ASSIGNED_CONTEXT((#1116,#1118,#1119))
REPRESENTATION_CONTEXT('','3D')
);
#1116=(
LENGTH_UNIT()
NAMED_UNIT(*)
SI_UNIT(.MILLI.,.METRE.)
);
#1117=(
LENGTH_UNIT()
NAMED_UNIT(*)
SI_UNIT($,.METRE.)
);
#1118=(
NAMED_UNIT(*)
PLANE_ANGLE_UNIT()
SI_UNIT($,.RADIAN.)
);
#1119=(
NAMED_UNIT(*)
SI_UNIT($,.STERADIAN.)
SOLID_ANGLE_UNIT()
);
#1120=SHAPE_DEFINITION_REPRESENTATION(#1121,#1122);
#1121=PRODUCT_DEFINITION_SHAPE('',$,#1124);
#1122=SHAPE_REPRESENTATION('',(#665),#1114);
#1123=PRODUCT_DEFINITION_CONTEXT('part definition',#1128,'design');
#1124=PRODUCT_DEFINITION('2026-09-28-09-22-56-048',
'R2 metal system standard basket',#1125,#1123);
#1125=PRODUCT_DEFINITION_FORMATION('',$,#1130);
#1126=PRODUCT_RELATED_PRODUCT_CATEGORY(
'R2 metal system standard basket','R2 metal system standard basket',(#1130));
#1127=APPLICATION_PROTOCOL_DEFINITION('international standard',
'automotive_design',2009,#1128);
#1128=APPLICATION_CONTEXT(
'Core Data for Automotive Mechanical Design Process');
#1129=PRODUCT_CONTEXT('part definition',#1128,'mechanical');
#1130=PRODUCT('2026-09-28-09-22-56-048',
'R2 metal system standard basket',$,(#1129));
#1131=PRESENTATION_STYLE_ASSIGNMENT((#1133));
#1132=PRESENTATION_STYLE_ASSIGNMENT((#1134));
#1133=SURFACE_STYLE_USAGE(.BOTH.,#1135);
#1134=SURFACE_STYLE_USAGE(.BOTH.,#1136);
#1135=SURFACE_SIDE_STYLE('',(#1137));
#1136=SURFACE_SIDE_STYLE('',(#1138));
#1137=SURFACE_STYLE_FILL_AREA(#1139);
#1138=SURFACE_STYLE_FILL_AREA(#1140);
#1139=FILL_AREA_STYLE('ABS (White)',(#1141));
#1140=FILL_AREA_STYLE('Tough 2000 (with Formlabs SLA 3D Printers)',(#1142));
#1141=FILL_AREA_STYLE_COLOUR('ABS (White)',#1143);
#1142=FILL_AREA_STYLE_COLOUR(
'Tough 2000 (with Formlabs SLA 3D Printers)',#1144);
#1143=COLOUR_RGB('ABS (White)',0.964705882352941,0.964705882352941,0.952941176470588);
#1144=COLOUR_RGB('Tough 2000 (with Formlabs SLA 3D Printers)',0.247058823529412,
0.247058823529412,0.247058823529412);
ENDSEC;
END-ISO-10303-21;
